<svg xmlns="https://www.w3.org/2000/svg" xmlns:xlink="https://www.w3.org/1999/xlink" width="769" height="571" viewBox="0 0 769 571">
  <defs>
    <path id="14.-the-scientist-is-a-professiona-(certified)-a" d="M5.16408763,174.954212 C45.0078908,-18.6997721 409.902724,-46.0983886 561.637286,65.6453962 C693.907121,163.054528 783.888813,417.724804 691.152752,569.656714 L234.813162,569.656496 C229.958392,559.988548 225.669553,549.882372 221.993454,539.37181 C167.398423,383.275786 -34.6797156,368.608197 5.16408763,174.954212 Z"/>
    <rect id="14.-the-scientist-is-a-professiona-(certified)-b" width="41.527" height="14.375"/>
    <rect id="14.-the-scientist-is-a-professiona-(certified)-c" width="148.54" height="105.415" rx="6.389"/>
    <path id="14.-the-scientist-is-a-professiona-(certified)-d" d="M99.6432384,45.8166775 C103.429155,64.9400042 101.295929,85.505299 93.2435598,107.512562 C81.1650067,140.523457 80.3245392,149.29076 79.2963965,175.102393 L12.0063984,175.001397 C-0.922478896,118.611365 -3.40968193,75.549792 4.54478928,45.8166775 C12.4992605,16.083563 14.9864635,0.811337211 12.0063984,-1.13686838e-13 L84.9651396,3.77322301 L99.6432384,45.8166775 Z"/>
    <path id="14.-the-scientist-is-a-professiona-(certified)-e" d="M50.1471807,16.7908103 C49.4955953,15.2272378 47.9708529,14.9328807 45.5729536,15.9077391 L45.4145324,10.2993071 C38.1885322,9.97583003 32.1052979,9.97583003 26.9248002,8.5866781 C22.2088054,7.32208277 16.6308541,4.45985673 10.1909462,-7.10542736e-15 C8.44869684,3.47194624 6.68229444,5.5740279 4.89173897,6.30624498 L4.89173897,15.5814128 C2.32478356,14.4439499 0.743749777,14.8470824 0.148637619,16.7908103 C-0.744030619,19.7064022 2.59532359,26.948641 4.53542388,27.7902182 C5.75625483,35.374724 8.21361194,41.5506643 11.9074952,46.3180392 C12.7732706,55.7745024 12.7732706,61.9950053 11.9074952,64.979548 C10.6088321,69.456362 13.6012768,81.8196067 23.6714155,83.8621929 C33.7415543,85.9047792 39.128131,67.3039408 39.7272235,63.70956 C39.8916628,62.7229719 38.4497078,62.3581069 38.4787408,60.0749894 C38.5063963,57.9001999 38.4096601,53.3145499 38.1885322,46.3180392 C40.996742,43.1111744 43.4054088,36.9352341 45.4145324,27.7902182 C46.1568392,27.552854 46.9110268,26.9580884 47.6770953,26.0059212 C49.3590807,23.9153363 51.1245588,19.136169 50.1471807,16.7908103 Z"/>
    <path id="14.-the-scientist-is-a-professiona-(certified)-f" d="M63.3081301,1.54163064 C58.6346861,3.86015694 55.8202135,5.82514482 54.8647124,7.43659429 C39.5505228,10.7572317 31.1818241,13.4932871 29.7586161,15.6447605 C28.3354081,17.7962339 27.6071427,20.126952 27.5738198,22.6369147 L0,22.6369147 L0,121.459039 L147.053718,121.459039 L147.053718,22.6369147 L123.210424,22.6369147 C122.786418,17.9917037 121.702092,15.290208 119.957444,14.5324277 C118.212796,13.7746473 110.375604,11.5935451 96.4458683,7.98912111 C95.1960177,4.96423345 92.4698592,2.66137993 88.2673926,1.08056055 C84.064926,-0.500258835 75.7451718,-0.346568805 63.3081301,1.54163064 Z"/>
    <path id="14.-the-scientist-is-a-professiona-(certified)-g" d="M1.56189519,7.83910358 C0.567318628,9.01511701 1.36983508,10.4529448 0.753854313,11.2669528 C0.137873544,12.0809608 -0.90537462,15.1131359 1.56189519,16.6393308 C1.26989305,17.9807251 1.52150623,19.4397255 2.31673472,21.0163318 C1.68434527,26.50956 4.29750626,29.8462629 10.1562177,31.0264404 L10.4386592,24.5141891 C16.6121928,22.2002527 20.1167883,19.3466389 20.9524458,15.9533479 C23.1629389,15.8689961 24.2930793,15.0775734 24.3428669,13.5790799 C24.3926544,12.0805864 20.0329356,11.4727164 11.2637103,11.7554699 C15.2265012,10.0990038 18.5381855,9.27077079 21.1987633,9.27077079 C25.1896298,9.27077079 25.0520589,6.3477165 23.3680787,5.81596282 C22.2454252,5.46146037 21.1754292,5.24671249 20.1580908,5.17171919 C21.7177269,4.44986185 22.4975449,3.47420022 22.4975449,2.2447343 C22.4975449,0.400535421 19.3730943,2.09050514 17.1302206,1.39572526 C14.8873468,0.700945367 11.3460657,-0.402242311 10.1562177,0.149351528 C8.96636971,0.700945367 2.55647175,6.66309016 1.56189519,7.83910358 Z"/>
    <path id="14.-the-scientist-is-a-professiona-(certified)-h" d="M1.56189519,7.83910358 C0.567318628,9.01511701 1.36983508,10.4529448 0.753854313,11.2669528 C0.137873544,12.0809608 -0.90537462,15.1131359 1.56189519,16.6393308 C1.26989305,17.9807251 1.52150623,19.4397255 2.31673472,21.0163318 C1.68434527,26.50956 4.29750626,29.8462629 10.1562177,31.0264404 L10.4386592,24.5141891 C16.6121928,22.2002527 20.1167883,19.3466389 20.9524458,15.9533479 C23.1629389,15.8689961 24.2930793,15.0775734 24.3428669,13.5790799 C24.3926544,12.0805864 20.0329356,11.4727164 11.2637103,11.7554699 C15.2265012,10.0990038 18.5381855,9.27077079 21.1987633,9.27077079 C25.1896298,9.27077079 25.0520589,6.3477165 23.3680787,5.81596282 C22.2454252,5.46146037 21.1754292,5.24671249 20.1580908,5.17171919 C21.7177269,4.44986185 22.4975449,3.47420022 22.4975449,2.2447343 C22.4975449,0.400535421 19.3730943,2.09050514 17.1302206,1.39572526 C14.8873468,0.700945367 11.3460657,-0.402242311 10.1562177,0.149351528 C8.96636971,0.700945367 2.55647175,6.66309016 1.56189519,7.83910358 Z"/>
  </defs>
  <g fill="none" fill-rule="evenodd" transform="translate(0 1)">
    <path fill="#E7EEFF" d="M370.473403,54.5022883 C552.656072,54.5022883 700.344306,202.241702 700.344306,384.487505 C700.344306,453.163417 679.372313,516.939359 643.485409,569.756154 L97.4613977,569.756154 C61.5744935,516.939359 40.6025013,453.163417 40.6025013,384.487505 C40.6025013,202.241702 188.290735,54.5022883 370.473403,54.5022883 Z"/>
    <use fill="#F4F7FF" xlink:href="#14.-the-scientist-is-a-professiona-(certified)-a"/>
    <g transform="translate(3.88 197)">
      <g transform="translate(402 32.376)">
        <g transform="translate(54.305 105.415)">
          <use fill="#B1C1FF" xlink:href="#14.-the-scientist-is-a-professiona-(certified)-b"/>
          <rect width="41.527" height="7.986" fill="#849DFF" mask="url(#14.-the-scientist-is-a-professiona-(certified)-c)"/>
        </g>
        <rect width="68.68" height="4.792" x="41.527" y="119.79" fill="#4E60A5"/>
        <use fill="#B1C1FF" xlink:href="#14.-the-scientist-is-a-professiona-(certified)-c"/>
        <rect width="150.137" height="14.375" y="92.638" fill="#4E60A5" mask="url(#14.-the-scientist-is-a-professiona-(certified)-e)"/>
        <rect width="148.54" height="105.415" x="3.194" fill="#849DFF" mask="url(#14.-the-scientist-is-a-professiona-(certified)-e)" rx="6.389"/>
        <rect width="132.568" height="79.86" x="9.583" y="6.389" fill="#FFF" mask="url(#14.-the-scientist-is-a-professiona-(certified)-e)" rx="1.597"/>
        <rect width="150.137" height="14.375" x="3.194" y="92.638" fill="#6073BE" mask="url(#14.-the-scientist-is-a-professiona-(certified)-e)"/>
      </g>
      <g transform="translate(286.94 42.936)">
        <rect width="22.029" height="13.117" x="46.376" y="98.115" fill="#6276C4"/>
        <rect width="74.479" height="5.247" x="19.626" y="108.698" fill="#849DFF"/>
        <rect width="22.029" height="34.104" x="46.376" y="64.101" fill="#849DFF"/>
        <rect width="13.112" height="5.247" x="27.494" y="67.249" fill="#849DFF"/>
        <rect width="13.112" height="5.247" x="27.494" y="78.267" fill="#B1C1FF"/>
        <rect width="18.357" height="3.148" x="24.871" y="72.496" fill="#B1C1FF"/>
        <g transform="matrix(-1 0 0 1 32.502 0)">
          <polygon fill="#B1C1FF" points="23.758 1.402 0 23.682 6.68 30.363 30.171 8.333"/>
          <path stroke="#849DFF" stroke-linecap="round" stroke-width="1.848" d="M22.4904766,0 L31.8250662,9.87523153"/>
        </g>
        <polygon fill="#B1C1FF" points="24.871 29.472 44.802 29.472 44.802 47.311 24.871 39.441"/>
        <rect width="18.357" height="3.148" x="24.871" y="75.644" fill="#849DFF"/>
        <path fill="#849DFF" d="M34.8367756,19.5031502 C40.3405335,19.5031502 44.8022109,23.9648275 44.8022109,29.4685855 L44.8022109,29.472039 L44.8022109,29.472039 L24.8713402,29.472039 L24.8713402,29.4685855 C24.8713402,23.9648275 29.3330176,19.5031502 34.8367756,19.5031502 Z"/>
        <rect width="19.931" height="1.574" x="24.871" y="30.521" fill="#849DFF"/>
        <polygon fill="#B1C1FF" points="24.871 33.158 24.871 34.593 44.802 44.286 44.802 33.158"/>
        <polygon fill="#849DFF" points="24.871 36.319 44.802 46.459 44.802 50.43 24.871 39.747"/>
        <polygon fill="#849DFF" points="24.871 39.776 33.788 42.499 33.788 55.616 24.871 55.616"/>
        <path fill="#849DFF" d="M44.8022109,35.2568644 L85.4675625,45.5179122 C88.750574,46.3463112 91.0510329,49.2993475 91.0510329,52.6852609 L91.0510329,78.1449252 C91.0510329,79.2503089 90.8031261,80.3416203 90.3255629,81.3385189 L86.7547768,88.7924271 C85.5256657,91.3581594 82.9331886,92.9908337 80.0882464,92.9908337 L67.9266219,92.9908337 L67.9266219,92.9908337 L67.9266219,57.3202908 C67.9266219,55.2695469 66.6940542,53.4197593 64.8014285,52.6301274 L44.8022109,44.2861528 L44.8022109,44.2861528 L44.8022109,35.2568644 Z"/>
        <rect width="44.058" height="2.623" x="11.234" y="58.854" fill="#849DFF" rx="1.155"/>
        <rect width="44.058" height="2.623" x="11.234" y="62.527" fill="#B1C1FF" rx="1.155"/>
        <ellipse cx="78.632" cy="81.587" fill="#6276C4" rx="6.556" ry="6.558"/>
        <ellipse cx="52.407" cy="81.587" fill="#6276C4" rx="6.556" ry="6.558"/>
      </g>
      <g transform="translate(8.64)">
        <g transform="translate(227.756 95.736)">
          <rect width="8.442" height="11.801" x="19.226" fill="#849DFF" rx="1.32"/>
          <rect width="15.195" height="3.372" x="15.849" y="5.057" stroke="#000" stroke-width="1.32" rx="1.32"/>
          <path fill="#77C5FF" d="M9.71368014,41.9667931 L37.6938174,41.9667931 L44.81202,53.9564843 C45.5887634,56.0924892 45.824356,57.4816823 45.5187981,58.1240636 C45.1458941,58.908028 43.7008835,59.1210633 42.7562574,59.5052998 L5.48605138,59.4742576 C3.10904728,59.7672016 1.92054523,59.3171369 1.92054523,58.1240636 C1.92054523,56.9309903 4.51825687,51.5452335 9.71368014,41.9667931 Z"/>
          <path stroke="#000" stroke-width="1.32" d="M17.5182826,8.42908673 L17.5182826,27.6392415 C17.5182826,28.0922405 17.4017181,28.5376187 17.1798008,28.9325374 L2.21024325,55.5720038 C1.49597568,56.8430973 1.94737227,58.4525504 3.21846575,59.166818 C3.61338444,59.3887353 4.05876264,59.5052998 4.5117616,59.5052998 L43.1741925,59.5052998 C44.6322244,59.5052998 45.8141927,58.3233315 45.8141927,56.8652997 C45.8141927,56.3933476 45.6876761,55.9300242 45.4478153,55.5235694 L29.7665927,28.9510263 C29.526732,28.5445714 29.4002154,28.081248 29.4002154,27.609296 L29.4002154,8.42908673 L29.4002154,8.42908673"/>
          <path stroke="#FFF" stroke-width="2.64" d="M20.5480995,10.4371938 L20.5480995,17.6700781"/>
          <polyline stroke="#FFF" stroke-width="2.64" points="20.548 23.466 20.548 29.144 8.052 51.452"/>
        </g>
        <g transform="translate(64.884)">
          <g transform="translate(72.396 2.016)">
            <rect width="8.442" height="11.801" x="19.226" fill="#849DFF" rx="1.32"/>
            <rect width="15.195" height="3.372" x="15.849" y="5.057" stroke="#000" stroke-width="1.32" rx="1.32"/>
            <path fill="#004DE6" d="M9.71368014,41.9667931 L37.6938174,41.9667931 L44.81202,53.9564843 C45.5887634,56.0924892 45.824356,57.4816823 45.5187981,58.1240636 C45.1458941,58.908028 43.7008835,59.1210633 42.7562574,59.5052998 L5.48605138,59.4742576 C3.10904728,59.7672016 1.92054523,59.3171369 1.92054523,58.1240636 C1.92054523,56.9309903 4.51825687,51.5452335 9.71368014,41.9667931 Z"/>
            <path stroke="#000" stroke-width="1.32" d="M17.5182826,8.42908673 L17.5182826,27.6392415 C17.5182826,28.0922405 17.4017181,28.5376187 17.1798008,28.9325374 L2.21024325,55.5720038 C1.49597568,56.8430973 1.94737227,58.4525504 3.21846575,59.166818 C3.61338444,59.3887353 4.05876264,59.5052998 4.5117616,59.5052998 L43.1741925,59.5052998 C44.6322244,59.5052998 45.8141927,58.3233315 45.8141927,56.8652997 C45.8141927,56.3933476 45.6876761,55.9300242 45.4478153,55.5235694 L29.7665927,28.9510263 C29.526732,28.5445714 29.4002154,28.081248 29.4002154,27.609296 L29.4002154,8.42908673 L29.4002154,8.42908673"/>
            <path stroke="#FFF" stroke-width="2.64" d="M20.5480995,10.4371938 L20.5480995,17.6700781"/>
            <polyline stroke="#FFF" stroke-width="2.64" points="20.548 23.466 20.548 29.144 8.052 51.452"/>
          </g>
          <g transform="translate(7.716 45.576)">
            <path fill="#FF586B" d="M0,45.1060312 C2.15222967,48.636174 6.11222991,49.6608312 11.8800007,48.180003 C20.531657,45.9587606 21.4553376,42.8845333 38.2800024,44.0972747 C39.0295816,53.0804962 36.2992669,59.6520308 30.0890583,63.8118786 C20.7737454,70.0516502 11.1759412,66.3184956 6.66659267,63.082657 C3.6603603,60.9254312 1.43816275,56.5672921 0,50.0082397 L0,45.1060312 Z"/>
            <path stroke="#000" stroke-width="1.32" d="M25.0800015,10.5600006 L25.0804866,29.9797747 C32.7431036,32.4791852 38.2800024,39.6829881 38.2800024,48.180003 C38.2800024,58.7507337 29.7107319,67.3200041 19.1400012,67.3200041 C8.56927042,67.3200041 0,58.7507337 0,48.180003 C0,39.6826179 5.53738125,32.4785575 13.2005175,29.979448 L13.2000008,10.5600006 L25.0800015,10.5600006 Z"/>
            <path fill="#849DFF" d="M15.2478602,-7.81597009e-14 L23.0175857,-7.81597009e-14 C23.7466016,-7.80715744e-14 24.3375858,0.590984167 24.3375858,1.32000008 L24.3375858,15.7607217 C24.3375858,16.4897376 23.7466016,17.0807217 23.0175857,17.0807217 L15.2478602,17.0807217 C14.5188443,17.0807217 13.9278601,16.4897376 13.9278601,15.7607217 L13.9278601,1.32000008 C13.9278601,0.590984167 14.5188443,-7.78037383e-14 15.2478602,-7.81597009e-14 Z"/>
            <rect width="17.16" height="3.96" x="10.56" y="6.6" stroke="#000" stroke-width="1.32" rx="1.98"/>
          </g>
          <path stroke="#000" stroke-width="1.32" d="M62.895887-2.27373675e-13L62.895887 156.315416M4.54747351e-13 100.356183L62.895887 100.356183"/>
          <circle cx="62.496" cy="100.356" r="3.3" fill="#000"/>
          <circle cx="62.496" cy="21.156" r="3.3" fill="#000"/>
          <path stroke="#000" stroke-width="1.32" d="M62.895887,20.5649763 L119.987337,20.5649763"/>
        </g>
        <g transform="translate(157.08 113.829)">
          <g transform="translate(37.492)">
            <rect width="11.818" height="3.372" stroke="#000" stroke-width="1.32" rx="1.32"/>
            <path fill="#77C5FF" d="M1.6883202,21.3261296 L10.1299212,21.3261296 L10.1299212,36.2388158 C10.1299212,38.5698995 8.24020447,40.4596163 5.90912071,40.4596163 C3.57803696,40.4596163 1.6883202,38.5698995 1.6883202,36.2388158 L1.6883202,21.3261296 L1.6883202,21.3261296 Z"/>
            <path stroke="#FFF" stroke-width="2.64" d="M4.11050329 3.37163469L4.11050329 9.71159395M4.11050329 12.9344504L4.11050329 34.7355606"/>
            <path stroke="#000" stroke-width="1.32" d="M1.6883202,3.37163469 L10.1299212,3.37163469 L10.1299212,36.2388158 C10.1299212,38.5698995 8.24020447,40.4596163 5.90912071,40.4596163 C3.57803696,40.4596163 1.6883202,38.5698995 1.6883202,36.2388158 L1.6883202,3.37163469 L1.6883202,3.37163469 Z"/>
          </g>
          <g transform="translate(22.297)">
            <rect width="11.818" height="3.372" stroke="#000" stroke-width="1.32" rx="1.32"/>
            <path fill="#FFD500" d="M1.6883202,8.36473538 L10.1299212,8.36473538 L10.1299212,36.2388158 C10.1299212,38.5698995 8.24020447,40.4596163 5.90912071,40.4596163 C3.57803696,40.4596163 1.6883202,38.5698995 1.6883202,36.2388158 L1.6883202,8.36473538 L1.6883202,8.36473538 Z"/>
            <path stroke="#FFF" stroke-width="2.64" d="M4.11050329 3.37163469L4.11050329 9.71159395M4.11050329 12.9344504L4.11050329 34.7355606"/>
            <path stroke="#000" stroke-width="1.32" d="M1.6883202,3.37163469 L10.1299212,3.37163469 L10.1299212,36.2388158 C10.1299212,38.5698995 8.24020447,40.4596163 5.90912071,40.4596163 C3.57803696,40.4596163 1.6883202,38.5698995 1.6883202,36.2388158 L1.6883202,3.37163469 L1.6883202,3.37163469 Z"/>
          </g>
          <g transform="translate(7.102)">
            <rect width="11.818" height="3.372" stroke="#000" stroke-width="1.32" rx="1.32"/>
            <path fill="#004DE6" d="M1.6883202,15.7712464 L10.1299212,15.7712464 L10.1299212,36.2388158 C10.1299212,38.5698995 8.24020447,40.4596163 5.90912071,40.4596163 C3.57803696,40.4596163 1.6883202,38.5698995 1.6883202,36.2388158 L1.6883202,15.7712464 L1.6883202,15.7712464 Z"/>
            <path stroke="#FFF" stroke-width="2.64" d="M4.11050329 3.37163469L4.11050329 9.71159395M4.11050329 12.9344504L4.11050329 34.7355606"/>
            <path stroke="#000" stroke-width="1.32" d="M1.6883202,3.37163469 L10.1299212,3.37163469 L10.1299212,36.2388158 C10.1299212,38.5698995 8.24020447,40.4596163 5.90912071,40.4596163 C3.57803696,40.4596163 1.6883202,38.5698995 1.6883202,36.2388158 L1.6883202,3.37163469 L1.6883202,3.37163469 Z"/>
          </g>
          <g stroke="#6276C4" stroke-width="3.96" transform="translate(0 13.478)">
            <polyline points=".349 29.619 .349 .009 54.375 .009 54.375 29.619"/>
            <path d="M0.348536167,17.7096934 L54.3747827,17.7096934"/>
          </g>
        </g>
        <g transform="translate(0 103.656)">
          <path fill="#FFD500" d="M-2.78888024e-13,22.6279294 L40.2540001,22.6279294 C41.0903924,34.7199007 38.8777122,43.1229125 33.6159595,47.8369647 C28.3542069,52.551017 21.3967315,53.8088706 12.7435335,51.6105255 C7.20023605,48.7014438 3.69048943,45.5084969 2.21429366,42.0316847 C0.738097886,38.5548726 -2.78888024e-13,34.3578759 -2.78888024e-13,29.4406947 L-2.78888024e-13,22.6279294 Z"/>
          <path stroke="#000" stroke-width="1.32" d="M0 0L46.2000028 0 40.1739155 7.96338189 40.1739155 32.7130455C40.1739155 43.8067659 31.1806782 52.8000032 20.0869578 52.8000032 8.99323732 52.8000032 2.73247679e-15 43.8067659 0 32.7130455L0 0 0 0zM1.61204383e-13 8.13123181L6.81593785 8.13123181M0 23.2773866L6.81593785 23.2773866M2.00869578 40.4543108L6.81593785 40.4543108"/>
        </g>
        <g transform="translate(71.28 117.04)">
          <rect width="36.96" height="5.28" y="34.135" fill="#849DFF"/>
          <rect width="31.68" height="3.96" x="2.64" y="30.175" fill="#B1C1FF"/>
          <rect width="22.44" height="3.96" x="7.92" y="26.215" fill="#C5D1FF"/>
          <path stroke="#FF586B" stroke-width="1.32" d="M19.1400012 14.9059224L19.1400012 26.2152391M19.1400012 22.4400014C23.1495887 22.4400014 26.4000016 19.3276258 26.4000016 15.4883159 26.4000016 12.9287759 23.9800015 7.76600397 19.1400012 0 14.3000009 7.76600397 11.8800007 12.9287759 11.8800007 15.4883159 11.8800007 19.3276258 15.1304136 22.4400014 19.1400012 22.4400014z"/>
        </g>
      </g>
      <g transform="translate(572.28 36.336)">
        <polyline stroke="#4E60A5" stroke-width="3.564" points="38.99 28.64 88.306 61.948 53.683 111.768"/>
        <polyline stroke="#4E60A5" stroke-width="1.188" points="33.05 29.828 82.366 63.136 47.743 112.956"/>
        <path fill="#6073BE" d="M33.6436267,110.018151 L66.9076279,110.018151 C72.8126567,110.018151 77.5996283,114.805123 77.5996283,120.710152 L77.5996283,120.710152 L77.5996283,120.710152 L22.9516264,120.710152 C22.9516264,114.805123 27.738598,110.018151 33.6436267,110.018151 Z"/>
        <circle cx="38.99" cy="28.64" r="6.534" fill="#6073BE"/>
        <g transform="rotate(42 13.287 35.545)">
          <path fill="#849DFF" d="M17.8200006,0 C21.1005722,-6.02631213e-16 23.7600008,2.65942868 23.7600008,5.94000021 L23.7600008,17.8200006 L23.7600008,17.8200006 L11.8800004,17.8200006 L11.8800004,5.94000021 C11.8800004,2.65942868 14.5394291,6.02631213e-16 17.8200006,0 Z"/>
          <path fill="#B1C1FF" d="M17.8200006,14.2560005 C27.6617152,14.2560005 35.6400012,22.2342865 35.6400012,32.0760011 L35.6400012,39.2040014 L35.6400012,39.2040014 L0,39.2040014 L0,32.0760011 C-4.75797611e-15,22.2342865 7.97828604,14.2560005 17.8200006,14.2560005 Z"/>
        </g>
      </g>
      <g transform="matrix(-1 0 0 1 666 156.456)">
        <polyline stroke="#000" stroke-linecap="round" stroke-width="2.64" points="98.656 214.81 101.562 7.92 51.081 7.92 48.176 214.81"/>
        <polyline stroke="#000" stroke-linecap="round" stroke-width="2.64" points="610.816 214.81 613.722 7.92 563.241 7.92 560.336 214.81"/>
        <polygon fill="#B1C1FF" points="0 0 665.28 0 665.28 15.84 0 15.84"/>
        <polygon fill="#849DFF" points="562.32 0 665.28 0 665.28 15.84 562.32 15.84"/>
      </g>
      <g transform="matrix(-1 0 0 1 763.68 156.456)">
        <path fill="#FFF" stroke="#849DFF" stroke-width="1.32" d="M45.6468559,170.27473 L89.0134103,170.27473 L89.0134103,193.269488 C89.0134103,205.244831 79.3054764,214.952765 67.3301331,214.952765 C55.3547898,214.952765 45.6468559,205.244831 45.6468559,193.269488 L45.6468559,170.27473 L45.6468559,170.27473 Z"/>
        <ellipse cx="67.33" cy="169.687" fill="#849DFF" rx="21.683" ry="1.764"/>
        <path fill="#B1C1FF" d="M37.6898991-2.20268248e-13C34.5356797 7.88797367 37.4009321 21.0408348 46.2856563 39.4585833 59.6127427 67.0852062 48.1796533 74.2359029 67.519079 98.9868893 68.9457131 77.1227987 70.9000036 58.8562874 73.3819505 44.1873554 75.8638975 29.5184234 63.966547 14.7893049 37.6898991-2.20268248e-13zM1.77635684e-14 64.5711444C4.14927211 78.2162666 13.6952996 87.3635046 28.6380824 92.0128585 51.0522566 98.9868893 61.6577327 115.832367 61.6577327 121.888462 65.1938755 102.889996 58.1662943 89.7972968 40.5749892 82.6103651 22.9836841 75.4234333 9.4586877 69.4103598 1.77635684e-14 64.5711444zM126.147417 34.6481169C121.881149 51.0569077 115.528577 62.4165156 107.089699 68.7269404 94.4313833 78.1925776 83.9149668 85.3188571 86.5161534 103.413038 91.6455211 94.789098 99.1253587 88.7396234 108.955666 85.2646137 123.701127 80.0520993 134.815878 67.1243406 134.815878 56.4604574 134.815878 49.351202 131.926391 42.0804218 126.147417 34.6481169z"/>
        <path stroke="#849DFF" stroke-width="1.584" d="M37.6898991,0.50675062 C58.6221098,19.6233577 68.5021878,35.9388185 67.3301331,49.4531332 C65.572051,69.7246052 62.5841554,88.0742493 69.9384376,104.968432 C77.2927199,121.862615 71.1548826,139.35489 67.3301331,149.359881 C64.7803001,156.029874 64.1942655,163.001491 65.5720295,170.27473"/>
        <path stroke="#849DFF" stroke-width="1.584" d="M3.55271368e-15 64.5711444C5.08483633 72.8799051 16.2469895 80.9149598 33.4864595 88.6763087 59.3456646 100.318332 63.6391853 109.3708 61.492425 127.610626 59.3456646 145.850451 57.6939832 153.669744 63.7188129 169.686861M70.3277321 169.686861C68.3756973 161.762006 70.6973599 154.578099 77.2927199 148.135138 87.1857598 138.470697 82.0278813 117.129003 86.2085419 104.619017 90.3892024 92.1090323 91.4814471 87.4840779 111.165263 76.0276112 124.287808 68.3899667 129.520674 55.4271676 126.863863 37.1392141"/>
      </g>
    </g>
    <g transform="translate(263)">
      <g transform="translate(50.64 375.712)">
        <path fill="#000" d="M67.5339866 170.575711C67.2642897 179.095231 67.8015568 184.324063 69.1457877 186.262207 71.1621341 189.169423 78.1806319 188.112096 84.3271099 181.713901 90.4735879 175.315706 92.3353661 165.769307 87.3746842 154.955334 85.9405544 151.222884 85.2092796 146.480667 85.1808599 140.728681 85.1524402 134.976695 81.2145764 129.93462 73.3672683 125.602458L67.5339866 170.575711zM34.3324499 138.492346C39.1981419 145.137916 41.3370442 149.515828 40.7491569 151.626082 39.8673259 154.791463 35.1983891 164.706954 35.1983891 166.755046 35.1983891 168.120441 35.1983891 171.431118 35.1983891 176.687077L33.3072687 176.687077 33.3072687 170.427666C31.5230663 172.249706 30.812261 176.277242 31.1748528 182.510275 31.7187404 191.859824 11.7440846 193.933214 7.35698345 191.823825 2.96988234 189.714435 4.4625339 181.978669 10.2916706 175.8229 14.1777618 171.719054 22.1913549 159.275536 34.3324499 138.492346z"/>
        <path fill="#F99B86" d="M-2.84217094e-14,2.6244103 C4.36797815,23.4022515 7.03536517,38.0621855 8.00216106,46.6042122 C9.45235491,59.4172523 12.2124288,98.1044884 17.1251209,120.198769 C22.037813,142.29305 16.7350594,159.288979 10.2916706,175.8229 C16.2295107,180.31943 22.2252481,180.121362 28.2788828,175.228699 C34.3609329,162.407855 37.3264252,154.083455 37.1753598,150.255498 C36.9487617,144.513563 33.9625377,134.267935 33.9625377,123.634786 C33.9625377,113.001637 37.7064084,84.5068146 33.1466105,67.5332672 C30.1067453,56.2175689 25.2546837,33.7064799 18.5904258,-1.13686838e-13 L-2.84217094e-14,2.6244103 Z"/>
        <path fill="#FFAE9C" d="M46.2815518,0.135653253 L36.3496207,28.7026892 C49.9675867,39.9597488 57.6195756,53.5832382 59.3055875,69.5731573 C61.8346053,93.5580359 66.2501888,120.296281 73.5506882,126.000847 C87.0580278,150.41366 88.8457901,165.328776 78.9139752,170.746197 C75.8399909,172.107483 72.2284832,172.447805 68.0794519,171.767162 C62.7247524,156.945104 59.9902615,148.035921 59.8759791,145.039614 C59.7045556,140.545153 57.9504607,133.803475 50.9887491,115.542494 C44.0270374,97.2815135 3.84828191,48.0695819 3.84828191,34.5215138 C3.84828191,25.4894685 4.53049087,14.4524388 5.89490879,1.41042488 L46.2815518,0.135653253 Z"/>
      </g>
      <g transform="translate(29.465 204.111)">
        <use fill="#004DE6" xlink:href="#14.-the-scientist-is-a-professiona-(certified)-d"/>
        <path fill="#0446C9" d="M12.9494858,6.67808755 C24.6394423,12.3676485 35.1908117,29.7046018 44.6035941,58.6889474 C58.7227677,102.165466 14.3884171,153.977175 21.1750146,175.499995 C25.3428114,188.717626 46.0954207,190.567851 83.4328424,181.050668 C81.8329204,162.462261 83.5162989,147.304003 88.4829781,135.575894 C95.9329968,117.98373 106.98572,80.0052094 101.459358,54.765872 C97.7751172,37.9396471 95.9356788,21.2009497 95.9410429,4.54977984 L61.8108124,8.69352562 L12.9494858,6.67808755 Z" mask="url(#14.-the-scientist-is-a-professiona-(certified)-g)"/>
      </g>
      <g transform="translate(60.862)">
        <g transform="translate(.07)">
          <ellipse cx="25.16" cy="13.57" fill="#7D1C1C" rx="13.445" ry="13.57"/>
          <path fill="#7D1C1C" d="M5.6690359,66.5052149 C0.380720828,53.3868716 -1.17452237,40.831196 1.0033063,28.8381881 C4.27004932,10.8486764 28.4613943,10.840118 39.6987259,16.8162251 C50.9360574,22.7923321 55.5247217,41.7904657 44.0451559,66.5052149 C36.392112,82.9817144 23.600072,82.9817144 5.6690359,66.5052149 Z"/>
          <path stroke="#7D1C1C" stroke-width=".9" d="M27.2863629,0.305840645 C36.4369374,1.35656062 40.2100799,6.69798837 38.6057905,16.3301239 C50.2194156,20.1636568 53.8051416,31.1121331 49.3629683,49.1755527"/>
          <path stroke="#FFF" stroke-width=".9" d="M11.7148821,15.5607701 C19.7937871,11.7782336 28.7574232,12.0346849 38.6057905,16.3301239"/>
        </g>
        <g transform="translate(0 33.48)">
          <use fill="#FFAE9C" xlink:href="#14.-the-scientist-is-a-professiona-(certified)-e"/>
          <g mask="url(#14.-the-scientist-is-a-professiona-(certified)-i)">
            <g transform="translate(12.577 15.214)">
              <path stroke="#000" stroke-width=".9" d="M10.5211361,4.33898432 L10.5211361,18.1642683 C11.2517181,18.9288848 12.0248014,19.311193 12.8403859,19.311193 C13.6559703,19.311193 14.4446318,18.9288848 15.2063704,18.1642683"/>
              <ellipse cx="18.933" cy="5.733" fill="#000" rx="1.216" ry="1.736"/>
              <ellipse cx="3.547" cy="5.733" fill="#000" rx="1.216" ry="1.736"/>
              <path stroke="#000" stroke-width=".9" d="M-2.7533531e-14,0.801523481 C2.48713894,-0.178809984 4.88582214,-0.178809984 7.1960496,0.801523481"/>
              <path stroke="#000" stroke-width=".9" d="M15.3862496,0.801523481 C17.8733885,-0.178809984 20.2720717,-0.178809984 22.5822992,0.801523481" transform="matrix(-1 0 0 1 37.969 0)"/>
              <path fill="#EEECEA" d="M7.29767026,24.2983122 C9.68062349,24.7223725 11.4921887,24.9344027 12.7323659,24.9344027 C13.9725432,24.9344027 15.8518869,24.7223725 18.3703972,24.2983122 C16.63284,27.0876767 14.6431513,28.4149953 12.4013313,28.2802678 C10.1595113,28.1455404 8.45829096,26.8182218 7.29767026,24.2983122 Z"/>
            </g>
          </g>
          <path fill="#F99B86" d="M10.8860346,45.2530236 C20.3878279,55.2538651 29.8447784,55.2538651 39.2568859,45.2530236 L38.8100161,50.4458596 C35.6788668,54.3698611 31.7395899,57.3249333 26.9921856,59.3110763 C22.2447813,61.2972192 16.8760643,62.7633805 10.8860346,63.70956 L10.8860346,45.2530236 Z" mask="url(#14.-the-scientist-is-a-professiona-(certified)-i)"/>
        </g>
        <ellipse cx="3.086" cy="59.869" fill="#0091FF" rx="1.582" ry="1.597"/>
        <ellipse cx="46.586" cy="59.869" fill="#0091FF" rx="1.582" ry="1.597"/>
        <path stroke="#7D1C1C" stroke-width=".9" d="M10.1257744,32.6231508 C19.5781396,42.9039785 31.3410589,46.6225841 45.4145324,43.7789676"/>
      </g>
      <path fill="#FFF" d="M36.8156091,214.261206 L26.3604779,249.841215 C37.0631548,252.959596 45.8546276,255.276582 52.7348965,256.792172 C61.4083116,245.411855 67.276003,231.076927 70.3379707,213.787388 C82.7550005,214.103267 88.9635155,214.261206 88.9635155,214.261206 C91.0158257,233.188058 97.6225822,246.647168 108.783785,254.638536 L132.417423,242.651484 L124.620663,211.641192 L37.9571224,208.660825 L36.8156091,214.261206 Z"/>
      <g transform="translate(11.007 92.802)">
        <use fill="#FFF" xlink:href="#14.-the-scientist-is-a-professiona-(certified)-f"/>
        <path fill="#FFAE9C" d="M63.0477083,0.381474242 C59.3923164,5.44901812 60.2705167,10.7683058 65.6823092,16.3393374 C71.0941018,21.910369 74.3684797,24.8897534 75.5054429,25.2774905 L82.080198,17.8272604 C88.6381976,13.7283793 91.9171974,10.625256 91.9171974,8.51789047 C91.9171974,6.41052495 91.1816423,3.57122812 89.710532,-2.44249065e-15 C85.0146153,-0.901517188 80.9906174,-1.3282961 77.6385383,-1.28033675 C74.2864591,-1.23237739 69.4228491,-0.678440395 63.0477083,0.381474242 Z" mask="url(#14.-the-scientist-is-a-professiona-(certified)-k)"/>
        <path fill="#F99B86" d="M59.6605052,6.87740959 C61.1959854,6.87740959 68.4141437,3.8839527 81.31498,-2.10296107 C68.1019626,-0.026039529 61.4954539,1.01242124 61.4954539,1.01242124 C61.4954539,1.01242124 57.3572849,6.87740959 59.6605052,6.87740959 Z" mask="url(#14.-the-scientist-is-a-professiona-(certified)-k)"/>
        <path fill="#77C5FF" d="M62.329289,1.9756324 C60.0647857,5.3414391 61.6946855,9.84275451 67.2189885,15.4795786 C72.7432914,21.1164027 75.3125965,24.6353691 74.9269038,26.0364778 C79.2188592,18.4649307 82.5152629,13.732039 84.8161147,11.8378027 C88.2673926,8.99644815 91.4583411,4.77908398 88.2673926,1.08056055 L93.9051305,0.920109387 C97.8556046,7.81663429 98.160666,15.5693657 94.8203146,24.1783035 C92.7627921,18.1865322 90.7292213,14.9203537 88.719602,14.3797679 L75.117779,28.3845193 L63.3081301,15.4795786 C57.6364524,18.4812809 54.6024331,22.3635167 54.2060722,27.1262859 C54.0227006,16.635986 54.5927752,9.18033208 55.916296,4.75932429 C57.2398169,0.338316507 59.3774812,-0.58958079 62.329289,1.9756324 Z" mask="url(#14.-the-scientist-is-a-professiona-(certified)-k)"/>
        <rect width="150.3" height="99" x="-1.8" y="22.5" fill="#13BB84" mask="url(#14.-the-scientist-is-a-professiona-(certified)-k)" transform="matrix(1 0 0 -1 0 144)"/>
        <g mask="url(#14.-the-scientist-is-a-professiona-(certified)-k)">
          <g transform="translate(42.16 33.75)">
            <path fill="#FFF" fill-rule="nonzero" d="M44.6601863,51.4158781 L49.9574081,52.1060385 L50.1917124,46.7662065 C50.227344,46.14301 50.6716585,45.6191795 51.2811737,45.4836315 L56.4947153,44.3241837 L54.8945354,39.2198054 C54.7163777,38.6246907 54.9528415,37.9831332 55.4743577,37.6466936 L59.9709496,34.7764258 L56.7290197,30.5409583 C56.3435512,30.0468295 56.3435512,29.3518088 56.7290197,28.8576799 L59.9709496,24.6222124 L55.4743577,21.7519448 C54.9528415,21.4155051 54.7163777,20.7739476 54.8945354,20.1788329 L56.4947153,15.0744545 L51.2811737,13.9290476 C50.6700388,13.7918796 50.227344,13.2588685 50.2052093,12.6324319 L49.9574081,7.30664058 L44.6601863,7.98276022 C44.0420332,8.06700501 43.4460147,7.71976482 43.2122502,7.14085099 L41.1709951,2.2152232 L36.4395589,4.67128658 C35.8851107,4.95750337 35.2086513,4.83923643 34.784852,4.38182967 L31.1709503,0.449319942 L27.5570488,4.38182967 C27.1348691,4.84193669 26.4557104,4.96128363 25.901262,4.67128658 L21.1709057,2.2152232 L19.1296504,7.14085099 C18.891567,7.71652456 18.298248,8.06052477 17.6806347,7.98276022 L12.3844926,7.29259983 L12.1501882,12.6324319 C12.1145568,13.2556282 11.6691626,13.7794589 11.0601872,13.9150068 L5.84664563,15.0744545 L7.44628557,20.1788329 C7.62498316,20.7739476 7.38905923,21.4155051 6.8670032,21.7519448 L2.37095113,24.6222124 L5.61180138,28.8576799 C5.99834956,29.3518088 5.99834956,30.0468295 5.61180138,30.5409583 L2.37095113,34.7764258 L6.8670032,37.6466936 C7.38905923,37.9831332 7.62498316,38.6246907 7.44628557,39.2198054 L5.84664563,44.3241837 L11.0601872,45.4695907 C11.6718619,45.6067587 12.1140169,46.1397699 12.1361516,46.7662065 L12.3844926,52.0925378 L17.6806347,51.4158781 C18.3004074,51.3256928 18.9007448,51.6750933 19.1296504,52.2577873 L21.0737288,56.9490415 L21.253506,56.6320429 L21.7226546,56.8939582 L25.901262,54.7273516 C26.0972355,54.6258257 26.3158835,54.5729027 26.5366911,54.5756028 C26.9237792,54.5718225 27.295211,54.732212 27.5570488,55.0168085 L31.1709503,58.9493199 L34.784852,55.0168085 C35.2086513,54.5594019 35.8851107,54.441135 36.4395589,54.7273516 L40.6192462,56.8939582 L41.0878549,56.6320429 L41.2670923,56.9490415 L43.2122502,52.2577873 C43.4497937,51.6831938 44.0431129,51.3381136 44.6601863,51.4158781 L44.6601863,51.4158781 Z M31.1709503,51.7749991 C18.9828053,51.7749991 9.10207231,41.8913416 9.10207231,29.6995892 C9.10207231,17.5072967 18.9828053,7.62417927 31.1709503,7.62417927 C43.3590953,7.62417927 53.2398284,17.5072967 53.2398284,29.6995892 C53.2252519,41.8854012 43.3531568,51.7604183 31.1709503,51.7749991 Z"/>
            <path fill="#FFF" fill-rule="nonzero" d="M50.0709499,29.6990487 C50.0709499,40.3855436 41.4077157,49.0493187 30.7212209,49.0493187 C20.0347261,49.0493187 11.3709509,40.3855436 11.3709509,29.6990487 C11.3709509,19.0120129 20.0347261,10.3493197 30.7212209,10.3493197 C41.4077157,10.3493197 50.0709499,19.0120129 50.0709499,29.6990487 Z"/>
            <g transform="translate(17.1 15.3)">
              <circle cx="13.608" cy="13.608" r="13.608" fill="#13BB84"/>
              <polyline stroke="#FFF" stroke-width="3.024" points="6.804 15.126 11.829 18.522 20.412 8.316"/>
            </g>
            <path fill="#FFF" fill-rule="nonzero" d="M17.1001838 54.4493185L11.431144 55.2046459C11.0540613 55.2462437 10.6753786 55.1302079 10.3820329 54.8828108 10.2524274 54.7706064 10.1457562 54.632677 10.0684196 54.4772328L.570951177 71.3555164 6.38986406 70.4469341C7.02082412 70.3506025 7.63204991 70.7173195 7.86085955 71.3276021L10.0006834 76.9493185 19.4709507 60.1405463C19.4032146 60.0589928 19.344012 59.9697766 19.2938765 59.875087L17.1001838 54.4493185zM52.2729477 54.4772328C52.1918776 54.6293929 52.0862732 54.766775 51.9598679 54.8828108 51.6611886 55.1302079 51.2787723 55.2462437 50.8968896 55.2046459L45.2422503 54.4493185 43.0480241 59.875087C42.998422 59.9697766 42.9392196 60.0589928 42.8709501 60.1405463L52.3417507 76.9493185 54.4805078 71.3276021C54.7071842 70.7134881 55.3205434 70.3462238 55.9525701 70.4469341L61.7709496 71.3555164 52.2729477 54.4772328z"/>
          </g>
        </g>
      </g>
      <g transform="translate(.966 126.551)">
        <use fill="#FFAE9C" xlink:href="#14.-the-scientist-is-a-professiona-(certified)-g"/>
        <path stroke="#7D1C1C" stroke-width=".9" d="M20.8155075 5.20221186C14.8094315 5.20221186 11.4409624 5.20221186 10.7101001 5.20221186 9.97923786 5.20221186 8.21961979 6.47594838 5.43124591 9.02342142M20.8155075 15.7567192C20.2126065 15.5943865 19.5882688 15.5132202 18.9424945 15.5132202 17.973833 15.5132202 15.1576358 16.7204004 7.74353117 20.2628655M11.5736641 11.5558151L5.43124591 14.6285106" mask="url(#14.-the-scientist-is-a-professiona-(certified)-m)"/>
      </g>
      <g transform="matrix(-1 0 0 1 168.755 126.551)">
        <use fill="#FFAE9C" xlink:href="#14.-the-scientist-is-a-professiona-(certified)-h"/>
        <path stroke="#7D1C1C" stroke-width=".9" d="M20.8155075 5.20221186C14.8094315 5.20221186 11.4409624 5.20221186 10.7101001 5.20221186 9.97923786 5.20221186 8.21961979 6.47594838 5.43124591 9.02342142M20.8155075 15.7567192C20.2126065 15.5943865 19.5882688 15.5132202 18.9424945 15.5132202 17.973833 15.5132202 15.1576358 16.7204004 7.74353117 20.2628655M11.5736641 11.5558151L5.43124591 14.6285106" mask="url(#14.-the-scientist-is-a-professiona-(certified)-o)"/>
      </g>
    </g>
  </g>
</svg>
